<?xml version="1.0" encoding="UTF-8" standalone="no"?>
<svg
   xmlns:dc="http://purl.org/dc/elements/1.1/"
   xmlns:cc="http://creativecommons.org/ns#"
   xmlns:rdf="http://www.w3.org/1999/02/22-rdf-syntax-ns#"
   xmlns:svg="http://www.w3.org/2000/svg"
   xmlns="http://www.w3.org/2000/svg"
   xmlns:xlink="http://www.w3.org/1999/xlink"
   xmlns:sodipodi="http://sodipodi.sourceforge.net/DTD/sodipodi-0.dtd"
   xmlns:inkscape="http://www.inkscape.org/namespaces/inkscape"
   id="Layer_1"
   data-name="Layer 1"
   viewBox="0 0 317.0196 72.94101"
   version="1.1"
   sodipodi:docname="bluesky_ophyd_async_logo.svg"
   width="317.01959"
   height="72.94101"
   inkscape:version="1.0.2 (e86c870879, 2021-01-15)">
  <metadata
     id="metadata87">
    <rdf:RDF>
      <cc:Work
         rdf:about="">
        <dc:format>image/svg+xml</dc:format>
        <dc:type
           rdf:resource="http://purl.org/dc/dcmitype/StillImage" />
        <dc:title></dc:title>
      </cc:Work>
    </rdf:RDF>
  </metadata>
  <sodipodi:namedview
     pagecolor="#ffffff"
     bordercolor="#666666"
     borderopacity="1"
     objecttolerance="10"
     gridtolerance="10"
     guidetolerance="10"
     inkscape:pageopacity="0"
     inkscape:pageshadow="2"
     inkscape:window-width="2980"
     inkscape:window-height="1101"
     id="namedview85"
     showgrid="true"
     fit-margin-top="0"
     fit-margin-left="0"
     fit-margin-right="0"
     fit-margin-bottom="0"
     inkscape:zoom="0.5"
     inkscape:cx="187.25157"
     inkscape:cy="4.7588679"
     inkscape:window-x="42"
     inkscape:window-y="76"
     inkscape:window-maximized="0"
     inkscape:current-layer="Layer_1"
     inkscape:document-rotation="0"
     inkscape:snap-global="false">
    <inkscape:grid
       type="xygrid"
       id="grid879"
       originx="79.254902"
       originy="18.235253" />
  </sodipodi:namedview>
  <defs
     id="defs14">
    <style
       id="style2">.cls-1{fill:#33bbed;}.cls-2{fill:url(#New_Gradient_Swatch_14);}.cls-3{fill:#eb7c44;}.cls-4{fill:url(#linear-gradient);}.cls-5{fill:#808285;}.cls-6{fill:none;stroke:#808285;stroke-linecap:round;stroke-miterlimit:10;stroke-width:1.5px;}</style>
    <linearGradient
       id="New_Gradient_Swatch_14"
       x1="96.650002"
       y1="63.27"
       x2="96.650002"
       y2="50.959999"
       gradientUnits="userSpaceOnUse">
      <stop
         offset="0"
         stop-color="#33bbed"
         id="stop4" />
      <stop
         offset="1"
         stop-color="#3777bc"
         id="stop6" />
    </linearGradient>
    <linearGradient
       id="linear-gradient"
       x1="45.509998"
       y1="62.369999"
       x2="45.509998"
       y2="27.85"
       gradientUnits="userSpaceOnUse">
      <stop
         offset="0"
         stop-color="#eb7c44"
         id="stop9" />
      <stop
         offset="1"
         stop-color="#ffd043"
         id="stop11" />
    </linearGradient>
    <linearGradient
       inkscape:collect="always"
       xlink:href="#New_Gradient_Swatch_14"
       id="linearGradient4597"
       gradientUnits="userSpaceOnUse"
       x1="96.650002"
       y1="63.27"
       x2="96.650002"
       y2="50.959999"
       gradientTransform="translate(-27.64,-26.73)" />
    <linearGradient
       inkscape:collect="always"
       xlink:href="#New_Gradient_Swatch_14"
       id="linearGradient4599"
       gradientUnits="userSpaceOnUse"
       x1="96.650002"
       y1="63.27"
       x2="96.650002"
       y2="50.959999"
       gradientTransform="translate(-27.64,-26.73)" />
    <linearGradient
       inkscape:collect="always"
       xlink:href="#New_Gradient_Swatch_14"
       id="linearGradient4601"
       gradientUnits="userSpaceOnUse"
       x1="96.650002"
       y1="63.27"
       x2="96.650002"
       y2="50.959999"
       gradientTransform="translate(-27.64,-26.73)" />
    <linearGradient
       inkscape:collect="always"
       xlink:href="#New_Gradient_Swatch_14"
       id="linearGradient4603"
       gradientUnits="userSpaceOnUse"
       x1="96.650002"
       y1="63.27"
       x2="96.650002"
       y2="50.959999"
       gradientTransform="translate(-27.64,-26.73)" />
    <linearGradient
       inkscape:collect="always"
       xlink:href="#New_Gradient_Swatch_14"
       id="linearGradient4605"
       gradientUnits="userSpaceOnUse"
       x1="96.650002"
       y1="63.27"
       x2="96.650002"
       y2="50.959999"
       gradientTransform="translate(-27.64,-26.73)" />
    <linearGradient
       inkscape:collect="always"
       xlink:href="#New_Gradient_Swatch_14"
       id="linearGradient4607"
       gradientUnits="userSpaceOnUse"
       x1="96.650002"
       y1="63.27"
       x2="96.650002"
       y2="50.959999"
       gradientTransform="translate(-27.64,-26.73)" />
    <linearGradient
       inkscape:collect="always"
       xlink:href="#New_Gradient_Swatch_14"
       id="linearGradient4609"
       gradientUnits="userSpaceOnUse"
       x1="96.650002"
       y1="63.27"
       x2="96.650002"
       y2="50.959999"
       gradientTransform="translate(-27.64,-26.73)" />
    <linearGradient
       inkscape:collect="always"
       xlink:href="#linear-gradient"
       id="linearGradient4611"
       gradientUnits="userSpaceOnUse"
       x1="45.509998"
       y1="62.369999"
       x2="45.509998"
       y2="27.85"
       gradientTransform="translate(-27.64,-26.73)" />
    <linearGradient
       inkscape:collect="always"
       xlink:href="#linear-gradient"
       id="linearGradient4613"
       gradientUnits="userSpaceOnUse"
       x1="45.509998"
       y1="62.369999"
       x2="45.509998"
       y2="27.85"
       gradientTransform="translate(-27.64,-26.73)" />
  </defs>
  <g
     id="g1071"
     transform="scale(2)"
     style="stroke-width:0.5">
    <path
       class="cls-1"
       d="m 42.96,24.92 a 0.63,0.63 0 0 1 0.21,-0.52 0.94,0.94 0 0 1 0.59,-0.13 1.49,1.49 0 0 1 0.43,0.06 l 0.26,0.08 v 3.73 a 2.57,2.57 0 0 1 0.89,-0.7 2.79,2.79 0 0 1 1.32,-0.3 3.41,3.41 0 0 1 1.32,0.26 3.3,3.3 0 0 1 1,0.71 3.34,3.34 0 0 1 0.7,1.09 3.7,3.7 0 0 1 0.25,1.39 3.53,3.53 0 0 1 -0.26,1.38 3.14,3.14 0 0 1 -0.72,1.09 3.51,3.51 0 0 1 -1.12,0.71 3.54,3.54 0 0 1 -1.41,0.26 4,4 0 0 1 -1.41,-0.23 3.13,3.13 0 0 1 -1.11,-0.7 3.28,3.28 0 0 1 -0.73,-1.17 4.84,4.84 0 0 1 -0.21,-1.66 z m 3.49,7.73 a 2,2 0 0 0 0.81,-0.16 1.92,1.92 0 0 0 0.64,-0.44 2.23,2.23 0 0 0 0.41,-0.66 2.55,2.55 0 0 0 0.14,-0.84 2.61,2.61 0 0 0 -0.14,-0.85 2.15,2.15 0 0 0 -0.41,-0.67 2.08,2.08 0 0 0 -0.64,-0.44 2,2 0 0 0 -0.81,-0.16 2,2 0 0 0 -0.83,0.16 2,2 0 0 0 -0.63,0.45 2.2,2.2 0 0 0 -0.41,0.68 2.27,2.27 0 0 0 -0.15,0.83 2.39,2.39 0 0 0 0.15,0.86 1.87,1.87 0 0 0 0.42,0.66 2.06,2.06 0 0 0 0.64,0.43 2.09,2.09 0 0 0 0.81,0.15 z"
       id="path16"
       inkscape:connector-curvature="0"
       style="fill:#33bbed;stroke-width:0.5" />
    <path
       class="cls-1"
       d="m 52.12,24.92 a 0.63,0.63 0 0 1 0.21,-0.52 0.92,0.92 0 0 1 0.59,-0.17 1.49,1.49 0 0 1 0.44,0.04 l 0.26,0.08 v 9.44 h -1.5 z"
       id="path18"
       inkscape:connector-curvature="0"
       style="fill:#33bbed;stroke-width:0.5" />
    <path
       class="cls-1"
       d="m 56.02,27.98 a 0.62,0.62 0 0 1 0.21,-0.53 0.89,0.89 0 0 1 0.58,-0.16 1.88,1.88 0 0 1 0.43,0 l 0.26,0.09 v 3.42 a 1.91,1.91 0 0 0 0.42,1.34 2,2 0 0 0 2.54,0 1.91,1.91 0 0 0 0.42,-1.34 v -2.82 a 0.62,0.62 0 0 1 0.21,-0.53 0.9,0.9 0 0 1 0.57,-0.18 2,2 0 0 1 0.44,0 l 0.26,0.09 v 3.81 a 2.84,2.84 0 0 1 -0.23,1.19 2.31,2.31 0 0 1 -0.65,0.89 2.79,2.79 0 0 1 -1,0.56 4.71,4.71 0 0 1 -2.58,0 2.79,2.79 0 0 1 -1,-0.56 2.53,2.53 0 0 1 -0.65,-0.89 3,3 0 0 1 -0.23,-1.19 z"
       id="path20"
       inkscape:connector-curvature="0"
       style="fill:#33bbed;stroke-width:0.5" />
    <path
       class="cls-1"
       d="m 70.5,33.33 -0.32,0.18 a 3.11,3.11 0 0 1 -0.56,0.22 7.64,7.64 0 0 1 -0.76,0.19 5.69,5.69 0 0 1 -1,0.07 4,4 0 0 1 -1.36,-0.22 3.06,3.06 0 0 1 -1.85,-1.72 3.95,3.95 0 0 1 0,-2.87 3.14,3.14 0 0 1 0.74,-1.11 3.35,3.35 0 0 1 1.11,-0.71 3.8,3.8 0 0 1 1.41,-0.26 3.69,3.69 0 0 1 1.2,0.18 2.73,2.73 0 0 1 0.88,0.47 1.85,1.85 0 0 1 0.54,0.68 2,2 0 0 1 0.18,0.83 2,2 0 0 1 -0.17,0.83 1.44,1.44 0 0 1 -0.6,0.63 3.47,3.47 0 0 1 -1.15,0.42 9.44,9.44 0 0 1 -1.85,0.15 h -0.49 -0.49 a 1.64,1.64 0 0 0 0.65,1.08 2.52,2.52 0 0 0 1.54,0.41 3,3 0 0 0 0.62,-0.06 2.64,2.64 0 0 0 0.52,-0.13 l 0.39,-0.15 0.28,-0.17 z m -4.56,-3.06 h 1.12 a 5.94,5.94 0 0 0 1.15,-0.09 2.4,2.4 0 0 0 0.69,-0.23 0.74,0.74 0 0 0 0.33,-0.33 1,1 0 0 0 0.13,-0.35 0.82,0.82 0 0 0 -0.4,-0.74 1.76,1.76 0 0 0 -1,-0.25 1.93,1.93 0 0 0 -0.85,0.17 1.83,1.83 0 0 0 -0.61,0.45 2,2 0 0 0 -0.38,0.64 2.38,2.38 0 0 0 -0.18,0.73 z"
       id="path22"
       inkscape:connector-curvature="0"
       style="fill:#33bbed;stroke-width:0.5" />
    <path
       class="cls-1"
       d="m 72.91,32.19 0.32,0.17 a 5.29,5.29 0 0 0 0.58,0.21 6.13,6.13 0 0 0 0.79,0.19 5.64,5.64 0 0 0 1,0.08 2.93,2.93 0 0 0 1.11,-0.18 0.62,0.62 0 0 0 0.42,-0.6 0.64,0.64 0 0 0 -0.27,-0.56 2.34,2.34 0 0 0 -1,-0.26 l -1,-0.12 a 4.57,4.57 0 0 1 -1,-0.19 2.39,2.39 0 0 1 -0.75,-0.37 1.62,1.62 0 0 1 -0.49,-0.58 1.74,1.74 0 0 1 -0.17,-0.82 1.92,1.92 0 0 1 0.16,-0.79 1.75,1.75 0 0 1 0.51,-0.65 2.47,2.47 0 0 1 0.92,-0.45 4.92,4.92 0 0 1 1.37,-0.17 5.84,5.84 0 0 1 2.1,0.3 q 0.75,0.3 0.75,0.78 a 0.61,0.61 0 0 1 -0.06,0.28 1.37,1.37 0 0 1 -0.13,0.2 0.71,0.71 0 0 1 -0.15,0.15 0.49,0.49 0 0 1 -0.12,0.08 1.2,1.2 0 0 0 -0.23,-0.17 3,3 0 0 0 -0.47,-0.22 4.8,4.8 0 0 0 -0.71,-0.19 4.64,4.64 0 0 0 -1,-0.09 c -1,0 -1.5,0.27 -1.5,0.8 a 0.57,0.57 0 0 0 0.28,0.51 2,2 0 0 0 0.82,0.24 l 1.33,0.17 a 3.46,3.46 0 0 1 1.67,0.59 1.55,1.55 0 0 1 0.6,1.32 1.87,1.87 0 0 1 -0.77,1.56 3.66,3.66 0 0 1 -2.23,0.58 7.23,7.23 0 0 1 -1.28,-0.1 8,8 0 0 1 -1,-0.24 4.36,4.36 0 0 1 -0.68,-0.27 1.66,1.66 0 0 1 -0.34,-0.19 z"
       id="path24"
       inkscape:connector-curvature="0"
       style="fill:#33bbed;stroke-width:0.5" />
    <path
       class="cls-1"
       d="m 80.72,24.92 a 0.62,0.62 0 0 1 0.2,-0.52 0.94,0.94 0 0 1 0.59,-0.17 1.49,1.49 0 0 1 0.43,0.06 l 0.26,0.08 v 5.31 l 0.47,-0.34 0.68,-0.5 c 0.26,-0.18 0.51,-0.37 0.78,-0.57 l 0.77,-0.55 a 3.2,3.2 0 0 1 0.52,-0.32 1.36,1.36 0 0 1 0.61,-0.11 1,1 0 0 1 0.6,0.18 1.25,1.25 0 0 1 0.31,0.32 9,9 0 0 1 -0.75,0.61 l -1,0.71 -0.94,0.66 -0.64,0.45 a 15,15 0 0 1 2,1.78 17.57,17.57 0 0 1 1.53,1.81 h -1.78 c -0.2,-0.24 -0.43,-0.5 -0.67,-0.76 a 9.86,9.86 0 0 0 -0.8,-0.78 C 83.61,32.01 83.33,31.76 83.04,31.53 82.75,31.3 82.47,31.07 82.2,30.87 v 2.94 h -1.48 z"
       id="path26"
       inkscape:connector-curvature="0"
       style="fill:#33bbed;stroke-width:0.5" />
    <path
       class="cls-1"
       d="m 88.72,27.98 a 0.62,0.62 0 0 1 0.21,-0.52 0.84,0.84 0 0 1 0.57,-0.17 2.12,2.12 0 0 1 0.44,0 l 0.26,0.09 v 3.47 a 1.76,1.76 0 0 0 0.41,1.22 1.61,1.61 0 0 0 1.27,0.46 1.72,1.72 0 0 0 1.25,-0.46 1.89,1.89 0 0 0 0.45,-1.36 v -2.73 a 0.62,0.62 0 0 1 0.21,-0.52 0.84,0.84 0 0 1 0.57,-0.19 2,2 0 0 1 0.44,0 l 0.26,0.09 v 5.69 a 4.51,4.51 0 0 1 -0.24,1.57 2.75,2.75 0 0 1 -0.71,1.06 2.58,2.58 0 0 1 -1.09,0.6 4.81,4.81 0 0 1 -1.41,0.19 7.26,7.26 0 0 1 -1,-0.06 c -0.29,0 -0.56,-0.08 -0.79,-0.13 l -0.56,-0.15 -0.31,-0.11 c 0.07,-0.19 0.13,-0.37 0.19,-0.56 l 0.18,-0.55 0.29,0.11 0.47,0.12 c 0.18,0 0.38,0.07 0.61,0.1 0.23,0.03 0.48,0 0.74,0 a 3.18,3.18 0 0 0 0.93,0.03 1.47,1.47 0 0 0 0.68,-0.38 1.71,1.71 0 0 0 0.43,-0.72 3.57,3.57 0 0 0 0.15,-1.12 1.73,1.73 0 0 1 -0.81,0.6 3.23,3.23 0 0 1 -1.22,0.23 3.55,3.55 0 0 1 -1.15,-0.18 2.72,2.72 0 0 1 -0.92,-0.5 2.5,2.5 0 0 1 -0.59,-0.83 2.88,2.88 0 0 1 -0.21,-1.13 z"
       id="path28"
       inkscape:connector-curvature="0"
       style="fill:#33bbed;stroke-width:0.5" />
    <path
       class="cls-2"
       d="m 42.96,24.92 a 0.63,0.63 0 0 1 0.21,-0.52 0.94,0.94 0 0 1 0.59,-0.13 1.49,1.49 0 0 1 0.43,0.06 l 0.26,0.08 v 3.73 a 2.57,2.57 0 0 1 0.89,-0.7 2.79,2.79 0 0 1 1.32,-0.3 3.41,3.41 0 0 1 1.32,0.26 3.3,3.3 0 0 1 1,0.71 3.34,3.34 0 0 1 0.7,1.09 3.7,3.7 0 0 1 0.25,1.39 3.53,3.53 0 0 1 -0.26,1.38 3.14,3.14 0 0 1 -0.72,1.09 3.51,3.51 0 0 1 -1.12,0.71 3.54,3.54 0 0 1 -1.41,0.26 4,4 0 0 1 -1.41,-0.23 3.13,3.13 0 0 1 -1.11,-0.7 3.28,3.28 0 0 1 -0.73,-1.17 4.84,4.84 0 0 1 -0.21,-1.66 z m 3.49,7.73 a 2,2 0 0 0 0.81,-0.16 1.92,1.92 0 0 0 0.64,-0.44 2.23,2.23 0 0 0 0.41,-0.66 2.55,2.55 0 0 0 0.14,-0.84 2.61,2.61 0 0 0 -0.14,-0.85 2.15,2.15 0 0 0 -0.41,-0.67 2.08,2.08 0 0 0 -0.64,-0.44 2,2 0 0 0 -0.81,-0.16 2,2 0 0 0 -0.83,0.16 2,2 0 0 0 -0.63,0.45 2.2,2.2 0 0 0 -0.41,0.68 2.27,2.27 0 0 0 -0.15,0.83 2.39,2.39 0 0 0 0.15,0.86 1.87,1.87 0 0 0 0.42,0.66 2.06,2.06 0 0 0 0.64,0.43 2.09,2.09 0 0 0 0.81,0.15 z"
       id="path30"
       inkscape:connector-curvature="0"
       style="fill:url(#linearGradient4597);stroke-width:0.5" />
    <path
       class="cls-2"
       d="m 52.12,24.92 a 0.63,0.63 0 0 1 0.21,-0.52 0.92,0.92 0 0 1 0.59,-0.17 1.49,1.49 0 0 1 0.44,0.04 l 0.26,0.08 v 9.44 h -1.5 z"
       id="path32"
       inkscape:connector-curvature="0"
       style="fill:url(#linearGradient4599);stroke-width:0.5" />
    <path
       class="cls-2"
       d="m 56.02,27.98 a 0.62,0.62 0 0 1 0.21,-0.53 0.89,0.89 0 0 1 0.58,-0.16 1.88,1.88 0 0 1 0.43,0 l 0.26,0.09 v 3.42 a 1.91,1.91 0 0 0 0.42,1.34 2,2 0 0 0 2.54,0 1.91,1.91 0 0 0 0.42,-1.34 v -2.82 a 0.62,0.62 0 0 1 0.21,-0.53 0.9,0.9 0 0 1 0.57,-0.18 2,2 0 0 1 0.44,0 l 0.26,0.09 v 3.81 a 2.84,2.84 0 0 1 -0.23,1.19 2.31,2.31 0 0 1 -0.65,0.89 2.79,2.79 0 0 1 -1,0.56 4.71,4.71 0 0 1 -2.58,0 2.79,2.79 0 0 1 -1,-0.56 2.53,2.53 0 0 1 -0.65,-0.89 3,3 0 0 1 -0.23,-1.19 z"
       id="path34"
       inkscape:connector-curvature="0"
       style="fill:url(#linearGradient4601);stroke-width:0.5" />
    <path
       class="cls-2"
       d="m 70.5,33.33 -0.32,0.18 a 3.11,3.11 0 0 1 -0.56,0.22 7.64,7.64 0 0 1 -0.76,0.19 5.69,5.69 0 0 1 -1,0.07 4,4 0 0 1 -1.36,-0.22 3.06,3.06 0 0 1 -1.85,-1.72 3.95,3.95 0 0 1 0,-2.87 3.14,3.14 0 0 1 0.74,-1.11 3.35,3.35 0 0 1 1.11,-0.71 3.8,3.8 0 0 1 1.41,-0.26 3.69,3.69 0 0 1 1.2,0.18 2.73,2.73 0 0 1 0.88,0.47 1.85,1.85 0 0 1 0.54,0.68 2,2 0 0 1 0.18,0.83 2,2 0 0 1 -0.17,0.83 1.44,1.44 0 0 1 -0.6,0.63 3.47,3.47 0 0 1 -1.15,0.42 9.44,9.44 0 0 1 -1.85,0.15 h -0.49 -0.49 a 1.64,1.64 0 0 0 0.65,1.08 2.52,2.52 0 0 0 1.54,0.41 3,3 0 0 0 0.62,-0.06 2.64,2.64 0 0 0 0.52,-0.13 l 0.39,-0.15 0.28,-0.17 z m -4.56,-3.06 h 1.12 a 5.94,5.94 0 0 0 1.15,-0.09 2.4,2.4 0 0 0 0.69,-0.23 0.74,0.74 0 0 0 0.33,-0.33 1,1 0 0 0 0.13,-0.35 0.82,0.82 0 0 0 -0.4,-0.74 1.76,1.76 0 0 0 -1,-0.25 1.93,1.93 0 0 0 -0.85,0.17 1.83,1.83 0 0 0 -0.61,0.45 2,2 0 0 0 -0.38,0.64 2.38,2.38 0 0 0 -0.18,0.73 z"
       id="path36"
       inkscape:connector-curvature="0"
       style="fill:url(#linearGradient4603);stroke-width:0.5" />
    <path
       class="cls-2"
       d="m 72.91,32.19 0.32,0.17 a 5.29,5.29 0 0 0 0.58,0.21 6.13,6.13 0 0 0 0.79,0.19 5.64,5.64 0 0 0 1,0.08 2.93,2.93 0 0 0 1.11,-0.18 0.62,0.62 0 0 0 0.42,-0.6 0.64,0.64 0 0 0 -0.27,-0.56 2.34,2.34 0 0 0 -1,-0.26 l -1,-0.12 a 4.57,4.57 0 0 1 -1,-0.19 2.39,2.39 0 0 1 -0.75,-0.37 1.62,1.62 0 0 1 -0.49,-0.58 1.74,1.74 0 0 1 -0.17,-0.82 1.92,1.92 0 0 1 0.16,-0.79 1.75,1.75 0 0 1 0.51,-0.65 2.47,2.47 0 0 1 0.92,-0.45 4.92,4.92 0 0 1 1.37,-0.17 5.84,5.84 0 0 1 2.1,0.3 q 0.75,0.3 0.75,0.78 a 0.61,0.61 0 0 1 -0.06,0.28 1.37,1.37 0 0 1 -0.13,0.2 0.71,0.71 0 0 1 -0.15,0.15 0.49,0.49 0 0 1 -0.12,0.08 1.2,1.2 0 0 0 -0.23,-0.17 3,3 0 0 0 -0.47,-0.22 4.8,4.8 0 0 0 -0.71,-0.19 4.64,4.64 0 0 0 -1,-0.09 c -1,0 -1.5,0.27 -1.5,0.8 a 0.57,0.57 0 0 0 0.28,0.51 2,2 0 0 0 0.82,0.24 l 1.33,0.17 a 3.46,3.46 0 0 1 1.67,0.59 1.55,1.55 0 0 1 0.6,1.32 1.87,1.87 0 0 1 -0.77,1.56 3.66,3.66 0 0 1 -2.23,0.58 7.23,7.23 0 0 1 -1.28,-0.1 8,8 0 0 1 -1,-0.24 4.36,4.36 0 0 1 -0.68,-0.27 1.66,1.66 0 0 1 -0.34,-0.19 z"
       id="path38"
       inkscape:connector-curvature="0"
       style="fill:url(#linearGradient4605);stroke-width:0.5" />
    <path
       class="cls-2"
       d="m 80.72,24.92 a 0.62,0.62 0 0 1 0.2,-0.52 0.94,0.94 0 0 1 0.59,-0.17 1.49,1.49 0 0 1 0.43,0.06 l 0.26,0.08 v 5.31 l 0.47,-0.34 0.68,-0.5 c 0.26,-0.18 0.51,-0.37 0.78,-0.57 l 0.77,-0.55 a 3.2,3.2 0 0 1 0.52,-0.32 1.36,1.36 0 0 1 0.61,-0.11 1,1 0 0 1 0.6,0.18 1.25,1.25 0 0 1 0.31,0.32 9,9 0 0 1 -0.75,0.61 l -1,0.71 -0.94,0.66 -0.64,0.45 a 15,15 0 0 1 2,1.78 17.57,17.57 0 0 1 1.53,1.81 h -1.78 c -0.2,-0.24 -0.43,-0.5 -0.67,-0.76 a 9.86,9.86 0 0 0 -0.8,-0.78 C 83.61,32.01 83.33,31.76 83.04,31.53 82.75,31.3 82.47,31.07 82.2,30.87 v 2.94 h -1.48 z"
       id="path40"
       inkscape:connector-curvature="0"
       style="fill:url(#linearGradient4607);stroke-width:0.5" />
    <path
       class="cls-2"
       d="m 88.72,27.98 a 0.62,0.62 0 0 1 0.21,-0.52 0.84,0.84 0 0 1 0.57,-0.17 2.12,2.12 0 0 1 0.44,0 l 0.26,0.09 v 3.47 a 1.76,1.76 0 0 0 0.41,1.22 1.61,1.61 0 0 0 1.27,0.46 1.72,1.72 0 0 0 1.25,-0.46 1.89,1.89 0 0 0 0.45,-1.36 v -2.73 a 0.62,0.62 0 0 1 0.21,-0.52 0.84,0.84 0 0 1 0.57,-0.19 2,2 0 0 1 0.44,0 l 0.26,0.09 v 5.69 a 4.51,4.51 0 0 1 -0.24,1.57 2.75,2.75 0 0 1 -0.71,1.06 2.58,2.58 0 0 1 -1.09,0.6 4.81,4.81 0 0 1 -1.41,0.19 7.26,7.26 0 0 1 -1,-0.06 c -0.29,0 -0.56,-0.08 -0.79,-0.13 l -0.56,-0.15 -0.31,-0.11 c 0.07,-0.19 0.13,-0.37 0.19,-0.56 l 0.18,-0.55 0.29,0.11 0.47,0.12 c 0.18,0 0.38,0.07 0.61,0.1 0.23,0.03 0.48,0 0.74,0 a 3.18,3.18 0 0 0 0.93,0.03 1.47,1.47 0 0 0 0.68,-0.38 1.71,1.71 0 0 0 0.43,-0.72 3.57,3.57 0 0 0 0.15,-1.12 1.73,1.73 0 0 1 -0.81,0.6 3.23,3.23 0 0 1 -1.22,0.23 3.55,3.55 0 0 1 -1.15,-0.18 2.72,2.72 0 0 1 -0.92,-0.5 2.5,2.5 0 0 1 -0.59,-0.83 2.88,2.88 0 0 1 -0.21,-1.13 z"
       id="path42"
       inkscape:connector-curvature="0"
       style="fill:url(#linearGradient4609);stroke-width:0.5" />
    <path
       class="cls-3"
       d="m 49.03,6.72 a 5.26,5.26 0 0 1 2.17,0.44 5.16,5.16 0 0 1 1.75,1.22 5.77,5.77 0 0 1 1.17,1.89 6.56,6.56 0 0 1 0,4.62 5.77,5.77 0 0 1 -1.17,1.85 5.38,5.38 0 0 1 -6.09,1.23 5.43,5.43 0 0 1 -1.75,-1.23 5.58,5.58 0 0 1 -1.16,-1.85 6.56,6.56 0 0 1 0,-4.62 5.58,5.58 0 0 1 1.16,-1.85 5.36,5.36 0 0 1 3.92,-1.66 z m 0,9.44 a 2.94,2.94 0 0 0 1.26,-0.27 2.88,2.88 0 0 0 1,-0.77 3.59,3.59 0 0 0 0.64,-1.15 4.07,4.07 0 0 0 0.23,-1.42 4.26,4.26 0 0 0 -0.23,-1.44 3.44,3.44 0 0 0 -0.64,-1.16 3,3 0 0 0 -1,-0.76 3.1,3.1 0 0 0 -2.53,0 3,3 0 0 0 -1,0.76 3.62,3.62 0 0 0 -0.64,1.16 4.26,4.26 0 0 0 -0.23,1.44 4.07,4.07 0 0 0 0.23,1.42 3.79,3.79 0 0 0 0.64,1.15 2.81,2.81 0 0 0 2.25,1 z"
       id="path44"
       inkscape:connector-curvature="0"
       style="fill:#eb7c44;stroke-width:0.5" />
    <path
       class="cls-3"
       d="m 57,13.06 a 8.33,8.33 0 0 1 0.4,-2.72 5.45,5.45 0 0 1 1.12,-2 4.68,4.68 0 0 1 1.74,-1.23 6.06,6.06 0 0 1 2.26,-0.41 4.88,4.88 0 0 1 2.1,0.44 5,5 0 0 1 1.67,1.21 5.46,5.46 0 0 1 1.12,1.92 6.78,6.78 0 0 1 0.39,2.33 6.86,6.86 0 0 1 -0.39,2.35 5.54,5.54 0 0 1 -1.05,1.78 4.76,4.76 0 0 1 -1.62,1.2 4.71,4.71 0 0 1 -2,0.43 4.16,4.16 0 0 1 -2,-0.48 4,4 0 0 1 -1.38,-1.19 v 5.79 H 57 Z m 5.36,3.08 a 2.76,2.76 0 0 0 1.25,-0.28 2.88,2.88 0 0 0 1,-0.75 3.3,3.3 0 0 0 0.63,-1.15 4.42,4.42 0 0 0 0.22,-1.43 4.24,4.24 0 0 0 -0.22,-1.4 3.08,3.08 0 0 0 -0.63,-1.12 3,3 0 0 0 -3.5,-0.74 2.93,2.93 0 0 0 -1,0.72 3.32,3.32 0 0 0 -0.64,1.12 4.11,4.11 0 0 0 -0.23,1.44 4.17,4.17 0 0 0 0.23,1.43 3.65,3.65 0 0 0 0.63,1.15 2.85,2.85 0 0 0 1,0.75 2.79,2.79 0 0 0 1.26,0.26 z"
       id="path46"
       inkscape:connector-curvature="0"
       style="fill:#eb7c44;stroke-width:0.5" />
    <path
       class="cls-3"
       d="m 70.54,3.02 a 1.13,1.13 0 0 1 0.32,-0.88 1.31,1.31 0 0 1 0.9,-0.29 2,2 0 0 1 0.66,0.1 l 0.4,0.14 v 6.06 a 4,4 0 0 1 1.2,-1 4.15,4.15 0 0 1 2.09,-0.47 4.88,4.88 0 0 1 1.69,0.29 3.65,3.65 0 0 1 1.33,0.85 3.73,3.73 0 0 1 0.86,1.4 5.77,5.77 0 0 1 0.3,2 v 6.89 h -2.28 v -6.18 a 3.76,3.76 0 0 0 -0.55,-2.2 2.2,2.2 0 0 0 -1.89,-0.75 2.47,2.47 0 0 0 -2.06,0.87 3.6,3.6 0 0 0 -0.69,2.3 v 5.93 h -2.28 z"
       id="path48"
       inkscape:connector-curvature="0"
       style="fill:#eb7c44;stroke-width:0.5" />
    <path
       class="cls-3"
       d="m 83.36,8.19 a 1.14,1.14 0 0 1 0.32,-0.88 1.27,1.27 0 0 1 0.88,-0.28 2.36,2.36 0 0 1 0.67,0.09 l 0.41,0.15 v 5.87 a 3.16,3.16 0 0 0 0.63,2.07 2.37,2.37 0 0 0 2,0.78 2.47,2.47 0 0 0 1.92,-0.79 3.36,3.36 0 0 0 0.7,-2.3 V 8.19 a 1.11,1.11 0 0 1 0.32,-0.88 1.26,1.26 0 0 1 0.88,-0.28 2.41,2.41 0 0 1 0.67,0.09 l 0.41,0.15 v 9.64 a 8.16,8.16 0 0 1 -0.38,2.65 4.73,4.73 0 0 1 -1.08,1.8 4.14,4.14 0 0 1 -1.68,1 7.15,7.15 0 0 1 -2.19,0.32 10,10 0 0 1 -1.5,-0.1 10.91,10.91 0 0 1 -1.21,-0.23 C 84.78,22.26 84.49,22.18 84.26,22.1 l -0.48,-0.19 c 0.11,-0.31 0.21,-0.62 0.3,-0.94 0.09,-0.32 0.19,-0.62 0.28,-0.93 l 0.44,0.17 a 4.49,4.49 0 0 0 0.72,0.21 7.41,7.41 0 0 0 1,0.17 10.15,10.15 0 0 0 1.13,0.06 5.08,5.08 0 0 0 1.41,-0.18 2.39,2.39 0 0 0 1.05,-0.65 3.3,3.3 0 0 0 0.66,-1.22 6.83,6.83 0 0 0 0.23,-1.91 2.82,2.82 0 0 1 -1.25,1 4.61,4.61 0 0 1 -1.88,0.38 5.16,5.16 0 0 1 -1.78,-0.3 3.9,3.9 0 0 1 -1.4,-0.85 4.14,4.14 0 0 1 -0.91,-1.4 5.22,5.22 0 0 1 -0.33,-1.92 z"
       id="path50"
       inkscape:connector-curvature="0"
       style="fill:#eb7c44;stroke-width:0.5" />
    <path
       class="cls-3"
       d="m 104.36,3.02 a 1.16,1.16 0 0 1 0.31,-0.88 1.29,1.29 0 0 1 0.89,-0.29 2,2 0 0 1 0.66,0.1 l 0.4,0.14 v 9.93 a 8.43,8.43 0 0 1 -0.41,2.8 5.62,5.62 0 0 1 -1.13,2 4.56,4.56 0 0 1 -1.7,1.19 5.74,5.74 0 0 1 -2.14,0.4 5.33,5.33 0 0 1 -2.17,-0.44 5.24,5.24 0 0 1 -1.71,-1.24 5.53,5.53 0 0 1 -1.13,-1.84 6.4,6.4 0 0 1 -0.41,-2.34 6.76,6.76 0 0 1 0.39,-2.34 5.64,5.64 0 0 1 1.15,-1.85 4.77,4.77 0 0 1 3.65,-1.64 4.13,4.13 0 0 1 3.35,1.69 z m 0,9.53 a 4.09,4.09 0 0 0 -0.23,-1.41 3.5,3.5 0 0 0 -0.63,-1.14 2.67,2.67 0 0 0 -1,-0.76 2.76,2.76 0 0 0 -1.25,-0.28 2.72,2.72 0 0 0 -1.26,0.28 2.85,2.85 0 0 0 -1,0.75 3,3 0 0 0 -0.63,1.13 4.42,4.42 0 0 0 -0.22,1.43 4.32,4.32 0 0 0 0.22,1.42 3.08,3.08 0 0 0 0.63,1.12 2.85,2.85 0 0 0 1,0.75 2.72,2.72 0 0 0 1.26,0.28 2.89,2.89 0 0 0 1.25,-0.27 2.68,2.68 0 0 0 1,-0.72 3.35,3.35 0 0 0 0.63,-1.13 4.2,4.2 0 0 0 0.23,-1.45 z"
       id="path52"
       inkscape:connector-curvature="0"
       style="fill:#eb7c44;stroke-width:0.5" />
    <path
       class="cls-4"
       d="M 17.87,0 A 17.87,17.87 0 1 0 35.74,17.87 17.87,17.87 0 0 0 17.87,0 Z m 10.08,21.14 a 5.77,5.77 0 0 0 0.22,4.13 0.86,0.86 0 0 1 -0.07,0.1 5.76,5.76 0 0 0 -6.25,4.55 h -0.11 a 5.76,5.76 0 0 0 -7.75,0 h -0.1 A 5.76,5.76 0 0 0 7.64,25.37 0.36,0.36 0 0 1 7.57,25.27 5.77,5.77 0 0 0 7.78,21.13 5.84,5.84 0 0 0 5.17,17.91 c 0,0 0,0 0,0 0,0 0,0 0,-0.06 a 5.79,5.79 0 0 0 2.4,-7.36 L 7.64,10.4 a 5.76,5.76 0 0 0 6.25,-4.55 h 0.1 a 5.76,5.76 0 0 0 7.75,0 h 0.11 a 5.76,5.76 0 0 0 6.25,4.55 l 0.07,0.09 a 5.77,5.77 0 0 0 2.4,7.36 v 0.11 a 5.81,5.81 0 0 0 -2.62,3.18 z"
       id="path54"
       inkscape:connector-curvature="0"
       style="fill:url(#linearGradient4611);stroke-width:0.5" />
    <circle
       class="cls-4"
       cx="17.869999"
       cy="17.869999"
       r="6.6399999"
       id="circle56"
       style="fill:url(#linearGradient4613);stroke-width:0.5" />
    <line
       class="cls-6"
       x1="113.16541"
       y1="22.27404"
       x2="113.16541"
       y2="2.598"
       id="line82"
       style="fill:none;stroke:#808285;stroke-width:0.75px;stroke-linecap:round;stroke-miterlimit:10" />
    <path
       class="cls-5"
       d="m 158.5098,15.80321 a 4.1,4.1 0 0 1 -0.4,0.25 6,6 0 0 1 -0.55,0.24 3.92,3.92 0 0 1 -0.7,0.19 4.69,4.69 0 0 1 -0.88,0.07 4,4 0 0 1 -1.44,-0.25 3.42,3.42 0 0 1 -1.18,-0.76 3.58,3.58 0 0 1 -0.8,-1.25 4.49,4.49 0 0 1 -0.3,-1.7 4.81,4.81 0 0 1 0.29,-1.72 3.61,3.61 0 0 1 0.79,-1.2700005 3.46,3.46 0 0 1 1.2,-0.7800001 4.28,4.28 0 0 1 1.49,-0.26 4.78,4.78 0 0 1 1.15,0.12 2.73,2.73 0 0 1 0.76,0.3 1.22,1.22 0 0 1 0.43,0.4100001 0.86,0.86 0 0 1 0.13,0.45 1,1 0 0 1 -0.18,0.5600005 2.36,2.36 0 0 1 -0.35,0.39 2.9,2.9 0 0 0 -0.7,-0.51 2.62,2.62 0 0 0 -1.15,-0.23 2.49,2.49 0 0 0 -0.87,0.15 1.82,1.82 0 0 0 -0.7,0.46 2.18,2.18 0 0 0 -0.47,0.77 3.2,3.2 0 0 0 -0.17,1.09 3.15,3.15 0 0 0 0.18,1.13 2.08,2.08 0 0 0 0.49,0.77 2.12,2.12 0 0 0 0.73,0.45 2.86,2.86 0 0 0 0.89,0.14 2.66,2.66 0 0 0 1.11,-0.2 c 0.28,-0.14 0.46,-0.24 0.57,-0.31 z"
       id="path64"
       inkscape:connector-curvature="0"
       style="fill:#808285;stroke-width:0.5" />
    <path
       class="cls-5"
       d="m 127.64406,14.463497 a 2.39,2.39 0 0 0 0.35,0.19 4.75,4.75 0 0 0 0.61,0.25 5.23,5.23 0 0 0 0.83,0.22 5.34,5.34 0 0 0 1,0.09 3,3 0 0 0 1.17,-0.2 0.72,0.72 0 0 0 0.45,-0.7 0.73,0.73 0 0 0 -0.29,-0.64 2.15,2.15 0 0 0 -1,-0.31 l -1.07,-0.14 a 4.31,4.31 0 0 1 -1,-0.22 2.4,2.4 0 0 1 -0.79,-0.43 1.92,1.92 0 0 1 -0.52,-0.67 2.35,2.35 0 0 1 -0.18,-1 2.53,2.53 0 0 1 0.17,-0.9100005 1.9,1.9 0 0 1 0.54,-0.76 2.56,2.56 0 0 1 1,-0.52 4.7,4.7 0 0 1 1.44,-0.19 5.5,5.5 0 0 1 2.22,0.35 c 0.53,0.23 0.79,0.53 0.79,0.9 a 0.79,0.79 0 0 1 -0.06,0.3200005 1.38,1.38 0 0 1 -0.14,0.24 0.66,0.66 0 0 1 -0.16,0.17 0.36,0.36 0 0 1 -0.12,0.09 1.63,1.63 0 0 0 -0.24,-0.19 2.53,2.53 0 0 0 -0.5,-0.26 5.87,5.87 0 0 0 -0.76,-0.2300005 5.05,5.05 0 0 0 -1,-0.09 c -1.06,0 -1.59,0.3000005 -1.59,0.9200005 a 0.66,0.66 0 0 0 0.3,0.59 2,2 0 0 0 0.86,0.28 l 1.4,0.2 a 3.59,3.59 0 0 1 1.77,0.68 1.89,1.89 0 0 1 0.63,1.54 2.26,2.26 0 0 1 -0.81,1.81 3.63,3.63 0 0 1 -2.36,0.67 6.88,6.88 0 0 1 -1.34,-0.12 7.17,7.17 0 0 1 -1.05,-0.28 3.59,3.59 0 0 1 -0.72,-0.31 2.83,2.83 0 0 1 -0.36,-0.22 z"
       id="path66"
       inkscape:connector-curvature="0"
       style="fill:#808285;stroke-width:0.5" />
    <path
       class="cls-5"
       d="m 125.36961,16.327409 a 3.46,3.46 0 0 1 -0.43,0.07 l -0.69,0.08 -0.89,0.06 c -0.33,0 -0.68,0 -1,0 a 6.05,6.05 0 0 1 -1.75,-0.2 3.06,3.06 0 0 1 -1.07,-0.54 1.81,1.81 0 0 1 -0.54,-0.79 3.09,3.09 0 0 1 -0.14,-0.91 3.33,3.33 0 0 1 0.17,-1.09 1.82,1.82 0 0 1 0.56,-0.78 2.81,2.81 0 0 1 1,-0.48 6.7,6.7 0 0 1 1.53,-0.15 q 0.52,0 1,0 l 0.7,0.07 a 2,2 0 0 0 -0.16,-0.87 1.33,1.33 0 0 0 -0.43,-0.55 1.64,1.64 0 0 0 -0.66,-0.2700005 4.5,4.5 0 0 0 -0.85,-0.07 3.32,3.32 0 0 0 -1.25,0.1900005 2.42,2.42 0 0 0 -0.63,0.33 1.68,1.68 0 0 1 -0.22,-0.28 0.85,0.85 0 0 1 -0.15,-0.5100005 1,1 0 0 1 0.1,-0.42 0.86,0.86 0 0 1 0.37,-0.36 2,2 0 0 1 0.7,-0.25 5.64,5.64 0 0 1 1.11,-0.09 6.06,6.06 0 0 1 1.47,0.17 3.15,3.15 0 0 1 1.15,0.55 2.43,2.43 0 0 1 0.74,1.0000005 3.71,3.71 0 0 1 0.27,1.49 z m -1.55,-3.35 -0.51,-0.09 a 7.82,7.82 0 0 0 -1.13,-0.06 2.37,2.37 0 0 0 -1.36,0.31 1.14,1.14 0 0 0 -0.43,1 1.3,1.3 0 0 0 0.09,0.49 1,1 0 0 0 0.31,0.39 1.87,1.87 0 0 0 0.6,0.24 4.84,4.84 0 0 0 0.94,0.08 8.56,8.56 0 0 0 1,-0.05 l 0.49,-0.08 z"
       id="path60-3"
       style="fill:#808285;stroke-width:0.5" />
    <path
       class="cls-5"
       d="m 143.72333,11.726916 a 3.42,3.42 0 0 1 0.25,-1.35 2.89,2.89 0 0 1 1.76,-1.6400006 3.79,3.79 0 0 1 1.33,-0.22 3.94,3.94 0 0 1 1.35,0.22 2.9,2.9 0 0 1 1.06,0.6300001 2.75,2.75 0 0 1 0.69,1.0000005 3.42,3.42 0 0 1 0.25,1.35 v 4.57 h -1.56 v -4.12 a 2.38,2.38 0 0 0 -0.46,-1.56 1.91,1.91 0 0 0 -2.66,0 2.38,2.38 0 0 0 -0.45,1.56 v 4.13 h -1.56 z"
       id="path62-6"
       style="fill:#808285;stroke-width:0.5" />
    <path
       class="cls-2"
       d="m 135.39701,9.3689125 a 0.65631576,0.73185346 0 0 1 0.2223,-0.6138117 0.88920199,0.99154339 0 0 1 0.60339,-0.20067 2.2441765,2.5024667 0 0 1 0.46577,0 l 0.27523,0.106237 v 4.0960182 a 1.8630899,2.0775195 0 0 0 0.43402,1.440099 1.7043039,1.9004582 0 0 0 1.34438,0.542988 1.8207469,2.0303031 0 0 0 1.32322,-0.542988 2.0007044,2.2309726 0 0 0 0.47637,-1.605356 V 9.3689125 a 0.65631576,0.73185346 0 0 1 0.22229,-0.6138117 0.88920199,0.99154339 0 0 1 0.60339,-0.224278 2.1171476,2.3608176 0 0 1 0.46577,0 l 0.27523,0.106237 v 6.7165262 a 4.7741678,5.3236437 0 0 1 -0.25406,1.853241 2.9110779,3.2461242 0 0 1 -0.75159,1.251234 2.7311205,3.0454547 0 0 1 -1.15384,0.708245 5.0917399,5.6777663 0 0 1 -1.4926,0.224278 7.6852459,8.5697679 0 0 1 -1.05856,-0.07082 c -0.30699,0 -0.59281,-0.09443 -0.83628,-0.153453 l -0.5928,-0.177061 -0.32816,-0.129845 c 0.0741,-0.224278 0.13762,-0.436752 0.20113,-0.661029 l 0.19055,-0.649225 0.30698,0.129845 0.49753,0.141649 c 0.19055,0 0.40226,0.08263 0.64573,0.118041 0.24347,0.03541 0.50812,0 0.78335,0 a 3.3662647,3.7537 0 0 0 0.98447,0.03541 1.5561035,1.7352009 0 0 0 0.71983,-0.448555 1.8101612,2.018499 0 0 0 0.45518,-0.849895 3.7791085,4.2140594 0 0 0 0.15879,-1.322057 1.8313326,2.0421072 0 0 1 -0.85744,0.708245 3.4191933,3.8127204 0 0 1 -1.29146,0.271494 3.7579369,4.1904512 0 0 1 -1.21737,-0.212474 2.8793207,3.2107119 0 0 1 -0.97388,-0.590204 2.6464346,2.951022 0 0 1 -0.62456,-0.979739 3.0486925,3.3995773 0 0 1 -0.2223,-1.333862 z"
       id="path42-3"
       inkscape:connector-curvature="0"
       style="fill:#808285;fill-opacity:1;stroke-width:0.499996" />
  </g>
</svg>
